<svg height="1em" viewBox="0 0 26 26" fill="none" xmlns="http://www.w3.org/2000/svg">
    <rect x="0.5" y="0.5" width="25" height="25" rx="3.5" fill="#FFD0D0" stroke="#D15C5C"/>
    <g clip-path="url(#clip0_976_239)">
    <path d="M11 17.5C11 17.775 10.775 18 10.5 18C10.225 18 10 17.775 10 17.5V11C10 10.725 10.225 10.5 10.5 10.5C10.775 10.5 11 10.725 11 11V17.5ZM13.5 17.5C13.5 17.775 13.275 18 13 18C12.725 18 12.5 17.775 12.5 17.5V11C12.5 10.725 12.725 10.5 13 10.5C13.275 10.5 13.5 10.725 13.5 11V17.5ZM16 17.5C16 17.775 15.775 18 15.5 18C15.225 18 15 17.775 15 17.5V11C15 10.725 15.225 10.5 15.5 10.5C15.775 10.5 16 10.725 16 11V17.5ZM15.9219 5.77938L17.0688 7.5H19.25C19.6656 7.5 20 7.83594 20 8.25C20 8.66563 19.6656 9 19.25 9H19V18.5C19 19.8813 17.8813 21 16.5 21H9.5C8.11937 21 7 19.8813 7 18.5V9H6.75C6.33594 9 6 8.66563 6 8.25C6 7.83594 6.33594 7.5 6.75 7.5H8.93187L10.0781 5.77938C10.4031 5.29241 10.95 5 11.5344 5H14.4656C15.05 5 15.5969 5.29244 15.9219 5.77938ZM10.7344 7.5H15.2656L14.6719 6.61125C14.625 6.54188 14.5469 6.5 14.4656 6.5H11.5344C11.4531 6.5 11.3469 6.54188 11.3281 6.61125L10.7344 7.5ZM8.5 18.5C8.5 19.0531 8.94781 19.5 9.5 19.5H16.5C17.0531 19.5 17.5 19.0531 17.5 18.5V9H8.5V18.5Z" fill="#CD3030"/>
    </g>
    <defs>
    <clipPath id="clip0_976_239">
    <rect width="14" height="16" fill="white" transform="translate(6 5)"/>
    </clipPath>
    </defs>
</svg>
