<svg height="1em" viewBox="0 0 26 26" fill="none" xmlns="http://www.w3.org/2000/svg">
    <rect x="0.5" y="0.5" width="25" height="25" rx="3.5" fill="#D0EEFF" stroke="#5C76D1"/>
    <g clip-path="url(#clip0_976_243)">
    <path d="M16.2808 6.58102C17.0551 5.80633 18.3116 5.80633 19.0859 6.58102L19.4193 6.91496C20.1936 7.68974 20.1936 8.94587 19.4193 9.7201L13.9854 15.1562C13.7457 15.3932 13.4509 15.5668 13.1257 15.6605L10.3702 16.4485C10.1388 16.5146 9.89076 16.4485 9.71992 16.2556C9.55184 16.1096 9.48571 15.8616 9.55184 15.6301L10.3399 12.8749C10.4336 12.5498 10.6072 12.2549 10.8442 12.0152L16.2808 6.58102ZM18.127 7.51616C17.8927 7.25799 17.4739 7.25799 17.2149 7.51616L16.413 8.31767L17.6833 9.58785L18.4852 8.76127C18.7442 8.52707 18.7442 8.10827 18.4852 7.8501L18.127 7.51616ZM11.613 13.2386L11.15 14.8504L12.762 14.3875C12.8722 14.3572 12.9687 14.2994 13.0486 14.2194L16.7492 10.5219L15.4789 9.2517L11.781 12.952C11.7011 13.0319 11.6433 13.1284 11.613 13.2386ZM11.511 7.6564C11.8775 7.6564 12.1723 7.9526 12.1723 8.31767C12.1723 8.68412 11.8775 8.97893 11.511 8.97893H8.42484C7.81615 8.97893 7.32264 9.47213 7.32264 10.081V17.5754C7.32264 18.1843 7.81615 18.6775 8.42484 18.6775H15.9198C16.5288 18.6775 17.022 18.1843 17.022 17.5754V14.4895C17.022 14.123 17.3168 13.8282 17.6833 13.8282C18.0498 13.8282 18.3446 14.123 18.3446 14.4895V17.5754C18.3446 18.9144 17.259 20 15.9198 20H8.42484C7.08567 20 6 18.9144 6 17.5754V10.081C6 8.74198 7.08567 7.6564 8.42484 7.6564H11.511Z" fill="#3C30CD"/>
    </g>
    <defs>
    <clipPath id="clip0_976_243">
    <rect width="14" height="14" fill="white" transform="translate(6 6)"/>
    </clipPath>
    </defs>
</svg>
