<svg height="1em" viewBox="0 0 20 23" fill="none" xmlns="http://www.w3.org/2000/svg">
    <rect y="3" width="20" height="20" rx="2" fill="#3C7D08"/>
    <g clip-path="url(#clip0_1092_227)">
    <path d="M10.7063 0.292854C10.3158 -0.0976181 9.68173 -0.0976181 9.29127 0.292854L5.29293 4.29129C5.00555 4.57868 4.92121 5.00664 5.0774 5.38149C5.23358 5.75634 5.59593 6 6.00201 6H13.9987C14.4016 6 14.7671 5.75634 14.9233 5.38149C15.0795 5.00664 14.992 4.57868 14.7078 4.29129L10.7094 0.292854H10.7063Z" fill="#3C7D08"/>
    </g>
    <path d="M4.9375 8.04785C4.62578 8.04785 4.375 8.29863 4.375 8.61035V9.73535C4.375 10.0471 4.62578 10.2979 4.9375 10.2979H6.0625C6.37422 10.2979 6.625 10.0471 6.625 9.73535V8.61035C6.625 8.29863 6.37422 8.04785 6.0625 8.04785H4.9375ZM8.5 8.42285C8.08516 8.42285 7.75 8.75801 7.75 9.17285C7.75 9.5877 8.08516 9.92285 8.5 9.92285H15.25C15.6648 9.92285 16 9.5877 16 9.17285C16 8.75801 15.6648 8.42285 15.25 8.42285H8.5ZM8.5 12.1729C8.08516 12.1729 7.75 12.508 7.75 12.9229C7.75 13.3377 8.08516 13.6729 8.5 13.6729H15.25C15.6648 13.6729 16 13.3377 16 12.9229C16 12.508 15.6648 12.1729 15.25 12.1729H8.5ZM8.5 15.9229C8.08516 15.9229 7.75 16.258 7.75 16.6729C7.75 17.0877 8.08516 17.4229 8.5 17.4229H15.25C15.6648 17.4229 16 17.0877 16 16.6729C16 16.258 15.6648 15.9229 15.25 15.9229H8.5ZM4.375 12.3604V13.4854C4.375 13.7971 4.62578 14.0479 4.9375 14.0479H6.0625C6.37422 14.0479 6.625 13.7971 6.625 13.4854V12.3604C6.625 12.0486 6.37422 11.7979 6.0625 11.7979H4.9375C4.62578 11.7979 4.375 12.0486 4.375 12.3604ZM4.9375 15.5479C4.62578 15.5479 4.375 15.7986 4.375 16.1104V17.2354C4.375 17.5471 4.62578 17.7979 4.9375 17.7979H6.0625C6.37422 17.7979 6.625 17.5471 6.625 17.2354V16.1104C6.625 15.7986 6.37422 15.5479 6.0625 15.5479H4.9375Z" fill="white"/>
    <defs>
    <clipPath id="clip0_1092_227">
    <rect width="8" height="13" fill="white" transform="translate(6)"/>
    </clipPath>
    </defs>
</svg>
