<svg width="182" height="160" viewBox="0 0 182 160" fill="none" xmlns="http://www.w3.org/2000/svg">
<path d="M112.227 4.4341C104.613 0.0270923 95.5545 -1.13897 87.0721 1.13387L24.5835 17.8777C6.86606 22.625 -3.59258 40.7492 1.13615 58.397L14.5258 108.368C19.2545 126.016 37.4373 136.465 55.0915 131.735L117.58 114.991C135.234 110.261 145.763 92.1179 141.034 74.47L127.644 24.4993C125.373 16.0233 119.845 8.82677 112.227 4.4341Z" fill="url(#paint0_linear_871_1048)"/>
<g filter="url(#filter0_b_871_1048)">
<mask id="path-2-inside-1_871_1048" fill="white">
<path d="M170.896 39.2595C163.96 32.3084 154.531 28.4346 144.73 28.4346H72.5219C52.0488 28.4346 35.5374 44.9534 35.5374 65.346V123.089C35.5374 143.481 52.1219 160 72.5219 160H144.73C165.13 160 181.721 143.481 181.721 123.089V65.346C181.721 55.5517 177.84 46.1959 170.896 39.2595Z"/>
</mask>
<path d="M170.896 39.2595C163.96 32.3084 154.531 28.4346 144.73 28.4346H72.5219C52.0488 28.4346 35.5374 44.9534 35.5374 65.346V123.089C35.5374 143.481 52.1219 160 72.5219 160H144.73C165.13 160 181.721 143.481 181.721 123.089V65.346C181.721 55.5517 177.84 46.1959 170.896 39.2595Z" fill="#FAAF64" fill-opacity="0.15"/>
<path d="M170.189 39.9659C170.579 40.3568 171.212 40.3575 171.603 39.9673C171.994 39.5772 171.994 38.9441 171.604 38.5531L170.189 39.9659ZM171.603 38.552C171.212 38.1617 170.579 38.162 170.189 38.5528C169.799 38.9435 169.799 39.5767 170.19 39.967L171.603 38.552ZM171.604 38.5531C164.479 31.4124 154.794 27.4346 144.73 27.4346V29.4346C154.268 29.4346 163.441 33.2044 170.189 39.9659L171.604 38.5531ZM144.73 27.4346H72.5219V29.4346H144.73V27.4346ZM72.5219 27.4346C51.4977 27.4346 34.5374 44.3999 34.5374 65.346H36.5374C36.5374 45.5068 52.6 29.4346 72.5219 29.4346V27.4346ZM34.5374 65.346V123.089H36.5374V65.346H34.5374ZM34.5374 123.089C34.5374 144.036 51.5721 161 72.5219 161V159C52.6718 159 36.5374 142.927 36.5374 123.089H34.5374ZM72.5219 161H144.73V159H72.5219V161ZM144.73 161C165.679 161 182.721 144.036 182.721 123.089H180.721C180.721 142.926 164.58 159 144.73 159V161ZM182.721 123.089V65.346H180.721V123.089H182.721ZM182.721 65.346C182.721 55.2858 178.734 45.6757 171.603 38.552L170.19 39.967C176.946 46.7162 180.721 55.8176 180.721 65.346H182.721Z" fill="url(#paint1_linear_871_1048)" mask="url(#path-2-inside-1_871_1048)"/>
</g>
<g filter="url(#filter1_bd_871_1048)">
<mask id="path-4-inside-2_871_1048" fill="white">
<path d="M156.723 67.1821L156.149 67.7646L123.766 94.0489C119.753 97.2526 114.793 99 109.703 99C104.599 99 99.7251 97.2526 95.7051 94.0489L63.0426 68.2015L62.1022 67.2549C60.4583 65.0706 60.6737 61.9398 62.6119 59.974C64.4711 58.0081 67.5579 57.7897 69.7904 59.4643L102.094 85.6758C106.322 89.178 112.288 89.178 116.451 85.6758L148.819 59.4643C149.903 58.4449 151.339 57.928 152.847 58.0081C154.275 58.1537 155.646 58.8163 156.644 59.9011C158.439 62.0126 158.439 65.0706 156.723 67.1821Z"/>
</mask>
<path d="M156.723 67.1821L156.149 67.7646L123.766 94.0489C119.753 97.2526 114.793 99 109.703 99C104.599 99 99.7251 97.2526 95.7051 94.0489L63.0426 68.2015L62.1022 67.2549C60.4583 65.0706 60.6737 61.9398 62.6119 59.974C64.4711 58.0081 67.5579 57.7897 69.7904 59.4643L102.094 85.6758C106.322 89.178 112.288 89.178 116.451 85.6758L148.819 59.4643C149.903 58.4449 151.339 57.928 152.847 58.0081C154.275 58.1537 155.646 58.8163 156.644 59.9011C158.439 62.0126 158.439 65.0706 156.723 67.1821Z" fill="url(#paint2_linear_871_1048)"/>
<path d="M156.149 67.7646L156.275 67.9199L156.283 67.9129L156.291 67.905L156.149 67.7646ZM123.766 94.0489L123.891 94.2052L123.892 94.2042L123.766 94.0489ZM95.7051 94.0489L95.8297 93.8925L95.8292 93.8921L95.7051 94.0489ZM63.0426 68.2015L62.9007 68.3424L62.9091 68.3509L62.9185 68.3583L63.0426 68.2015ZM62.1022 67.2549L61.9424 67.3752L61.9506 67.3862L61.9603 67.3959L62.1022 67.2549ZM62.6119 59.974L62.7543 60.1144L62.7572 60.1114L62.6119 59.974ZM69.7904 59.4643L69.9165 59.3089L69.9105 59.3043L69.7904 59.4643ZM102.094 85.6758L102.222 85.5218L102.22 85.5205L102.094 85.6758ZM116.451 85.6758L116.325 85.5204L116.322 85.5228L116.451 85.6758ZM148.819 59.4643L148.945 59.6197L148.951 59.6151L148.956 59.61L148.819 59.4643ZM152.847 58.0081L152.867 57.8089L152.857 57.8084L152.847 58.0081ZM156.644 59.9011L156.796 59.7715L156.791 59.7657L156.644 59.9011ZM156.581 67.0417L156.006 67.6242L156.291 67.905L156.865 67.3225L156.581 67.0417ZM156.023 67.6093L123.64 93.8937L123.892 94.2042L156.275 67.9199L156.023 67.6093ZM123.641 93.8926C119.664 97.0683 114.747 98.8 109.703 98.8V99.2C114.839 99.2 119.843 97.4369 123.891 94.2052L123.641 93.8926ZM109.703 98.8C104.646 98.8 99.8153 97.0688 95.8297 93.8925L95.5804 94.2053C99.6348 97.4364 104.553 99.2 109.703 99.2V98.8ZM95.8292 93.8921L63.1667 68.0446L62.9185 68.3583L95.581 94.2058L95.8292 93.8921ZM63.1845 68.0605L62.2441 67.114L61.9603 67.3959L62.9007 68.3424L63.1845 68.0605ZM62.262 67.1347C60.6783 65.0304 60.8849 62.0104 62.7543 60.1144L62.4695 59.8335C60.4624 61.8692 60.2383 65.1109 61.9424 67.3752L62.262 67.1347ZM62.7572 60.1114C64.5432 58.223 67.5152 58.0076 69.6704 59.6243L69.9105 59.3043C67.6006 57.5717 64.3991 57.7932 62.4666 59.8365L62.7572 60.1114ZM69.6644 59.6196L101.968 85.8311L102.22 85.5205L69.9165 59.309L69.6644 59.6196ZM101.966 85.8298C106.268 89.3928 112.341 89.3941 116.58 85.8289L116.322 85.5228C112.234 88.9618 106.376 88.9631 102.222 85.5218L101.966 85.8298ZM116.577 85.8312L148.945 59.6197L148.693 59.3089L116.325 85.5204L116.577 85.8312ZM148.956 59.61C150 58.6289 151.382 58.1305 152.836 58.2078L152.857 57.8084C151.296 57.7254 149.807 58.261 148.682 59.3186L148.956 59.61ZM152.826 58.2071C154.208 58.3479 155.533 58.9887 156.497 60.0365L156.791 59.7657C155.759 58.6438 154.343 57.9595 152.867 57.8091L152.826 58.2071ZM156.492 60.0307C158.223 62.0678 158.223 65.0184 156.568 67.056L156.878 67.3082C158.654 65.1229 158.654 61.9574 156.796 59.7716L156.492 60.0307Z" fill="url(#paint3_linear_871_1048)" fill-opacity="0.5" mask="url(#path-4-inside-2_871_1048)"/>
</g>
<g filter="url(#filter2_bd_871_1048)">
<mask id="path-6-inside-3_871_1048" fill="white">
<path d="M62.1601 124.681L62.7449 124.096L95.7167 97.7098C99.8025 94.4937 104.853 92.7395 110.035 92.7395C115.232 92.7395 120.195 94.4937 124.288 97.7098L157.545 123.657L158.503 124.608C160.177 126.8 159.957 129.943 157.984 131.917C156.091 133.89 152.948 134.11 150.675 132.428L117.783 106.115C113.478 102.6 107.404 102.6 103.165 106.115L70.2076 132.428C69.1039 133.452 67.6421 133.971 66.1071 133.89C64.6526 133.744 63.2565 133.079 62.2406 131.99C60.4133 129.87 60.4132 126.8 62.1601 124.681Z"/>
</mask>
<path d="M62.1601 124.681L62.7449 124.096L95.7167 97.7098C99.8025 94.4937 104.853 92.7395 110.035 92.7395C115.232 92.7395 120.195 94.4937 124.288 97.7098L157.545 123.657L158.503 124.608C160.177 126.8 159.957 129.943 157.984 131.917C156.091 133.89 152.948 134.11 150.675 132.428L117.783 106.115C113.478 102.6 107.404 102.6 103.165 106.115L70.2076 132.428C69.1039 133.452 67.6421 133.971 66.1071 133.89C64.6526 133.744 63.2565 133.079 62.2406 131.99C60.4133 129.87 60.4132 126.8 62.1601 124.681Z" fill="url(#paint4_linear_871_1048)"/>
<path d="M62.7449 124.096L62.6199 123.94L62.6113 123.947L62.6035 123.955L62.7449 124.096ZM95.7167 97.7098L95.593 97.5526L95.5917 97.5536L95.7167 97.7098ZM124.288 97.7098L124.165 97.867L124.165 97.8675L124.288 97.7098ZM157.545 123.657L157.686 123.515L157.678 123.507L157.668 123.5L157.545 123.657ZM158.503 124.608L158.662 124.486L158.653 124.475L158.644 124.466L158.503 124.608ZM157.984 131.917L157.842 131.775L157.839 131.778L157.984 131.917ZM150.675 132.428L150.55 132.585L150.556 132.589L150.675 132.428ZM117.783 106.115L117.657 106.27L117.658 106.272L117.783 106.115ZM103.165 106.115L103.29 106.272L103.292 106.269L103.165 106.115ZM70.2076 132.428L70.0828 132.272L70.077 132.277L70.0716 132.282L70.2076 132.428ZM66.1071 133.89L66.0871 134.09L66.0967 134.09L66.1071 133.89ZM62.2406 131.99L62.089 132.121L62.0943 132.126L62.2406 131.99ZM62.3016 124.822L62.8863 124.237L62.6035 123.955L62.0187 124.539L62.3016 124.822ZM62.8699 124.252L95.8417 97.8659L95.5917 97.5536L62.6199 123.94L62.8699 124.252ZM95.8404 97.8669C99.8912 94.6785 104.898 92.9395 110.035 92.9395V92.5395C104.808 92.5395 99.7139 94.3089 95.593 97.5526L95.8404 97.8669ZM110.035 92.9395C115.186 92.9395 120.106 94.678 124.165 97.867L124.412 97.5525C120.284 94.3094 115.278 92.5395 110.035 92.5395V92.9395ZM124.165 97.8675L157.422 123.815L157.668 123.5L124.411 97.5521L124.165 97.8675ZM157.404 123.799L158.362 124.75L158.644 124.466L157.686 123.515L157.404 123.799ZM158.344 124.729C159.956 126.841 159.746 129.872 157.842 131.775L158.125 132.058C160.169 130.015 160.397 126.76 158.662 124.486L158.344 124.729ZM157.839 131.778C156.02 133.675 152.99 133.892 150.794 132.268L150.556 132.589C152.905 134.327 156.162 134.105 158.128 132.055L157.839 131.778ZM150.8 132.272L117.908 105.959L117.658 106.272L150.55 132.585L150.8 132.272ZM117.91 105.96C113.532 102.385 107.351 102.384 103.037 105.961L103.292 106.269C107.457 102.815 113.425 102.814 117.657 106.27L117.91 105.96ZM103.04 105.959L70.0828 132.272L70.3324 132.585L103.29 106.272L103.04 105.959ZM70.0716 132.282C69.0087 133.267 67.6001 133.768 66.1176 133.691L66.0967 134.09C67.684 134.173 69.1991 133.636 70.3436 132.575L70.0716 132.282ZM66.1271 133.691C64.719 133.55 63.3684 132.906 62.3868 131.853L62.0943 132.126C63.1446 133.252 64.5862 133.938 66.0871 134.089L66.1271 133.691ZM62.392 131.859C60.6291 129.814 60.6288 126.853 62.3145 124.808L62.0058 124.554C60.1977 126.747 60.1974 129.926 62.0891 132.121L62.392 131.859Z" fill="url(#paint5_linear_871_1048)" fill-opacity="0.5" mask="url(#path-6-inside-3_871_1048)"/>
</g>
<defs>
<filter id="filter0_b_871_1048" x="11.5374" y="4.43457" width="194.184" height="179.565" filterUnits="userSpaceOnUse" color-interpolation-filters="sRGB">
<feFlood flood-opacity="0" result="BackgroundImageFix"/>
<feGaussianBlur in="BackgroundImageFix" stdDeviation="12"/>
<feComposite in2="SourceAlpha" operator="in" result="effect1_backgroundBlur_871_1048"/>
<feBlend mode="normal" in="SourceGraphic" in2="effect1_backgroundBlur_871_1048" result="shape"/>
</filter>
<filter id="filter1_bd_871_1048" x="46" y="43" width="127" height="71" filterUnits="userSpaceOnUse" color-interpolation-filters="sRGB">
<feFlood flood-opacity="0" result="BackgroundImageFix"/>
<feGaussianBlur in="BackgroundImageFix" stdDeviation="7.5"/>
<feComposite in2="SourceAlpha" operator="in" result="effect1_backgroundBlur_871_1048"/>
<feColorMatrix in="SourceAlpha" type="matrix" values="0 0 0 0 0 0 0 0 0 0 0 0 0 0 0 0 0 0 127 0" result="hardAlpha"/>
<feOffset dx="5" dy="5"/>
<feGaussianBlur stdDeviation="5"/>
<feColorMatrix type="matrix" values="0 0 0 0 0.980392 0 0 0 0 0.686275 0 0 0 0 0.392157 0 0 0 0.5 0"/>
<feBlend mode="normal" in2="effect1_backgroundBlur_871_1048" result="effect2_dropShadow_871_1048"/>
<feBlend mode="normal" in="SourceGraphic" in2="effect2_dropShadow_871_1048" result="shape"/>
</filter>
<filter id="filter2_bd_871_1048" x="45.8599" y="77.7393" width="128.765" height="71.1592" filterUnits="userSpaceOnUse" color-interpolation-filters="sRGB">
<feFlood flood-opacity="0" result="BackgroundImageFix"/>
<feGaussianBlur in="BackgroundImageFix" stdDeviation="7.5"/>
<feComposite in2="SourceAlpha" operator="in" result="effect1_backgroundBlur_871_1048"/>
<feColorMatrix in="SourceAlpha" type="matrix" values="0 0 0 0 0 0 0 0 0 0 0 0 0 0 0 0 0 0 127 0" result="hardAlpha"/>
<feOffset dx="5" dy="5"/>
<feGaussianBlur stdDeviation="5"/>
<feColorMatrix type="matrix" values="0 0 0 0 0.980392 0 0 0 0 0.686275 0 0 0 0 0.392157 0 0 0 0.5 0"/>
<feBlend mode="normal" in2="effect1_backgroundBlur_871_1048" result="effect2_dropShadow_871_1048"/>
<feBlend mode="normal" in="SourceGraphic" in2="effect2_dropShadow_871_1048" result="shape"/>
</filter>
<linearGradient id="paint0_linear_871_1048" x1="-7.31908" y1="23.3889" x2="103.319" y2="103.49" gradientUnits="userSpaceOnUse">
<stop stop-color="#FF8885"/>
<stop offset="1" stop-color="#FAAF64"/>
</linearGradient>
<linearGradient id="paint1_linear_871_1048" x1="53.6631" y1="41.8404" x2="135.825" y2="149.597" gradientUnits="userSpaceOnUse">
<stop stop-color="white" stop-opacity="0.25"/>
<stop offset="1" stop-color="#FAAF64" stop-opacity="0.2"/>
</linearGradient>
<linearGradient id="paint2_linear_871_1048" x1="141.615" y1="62.068" x2="53.5736" y2="39.0286" gradientUnits="userSpaceOnUse">
<stop stop-color="white"/>
<stop offset="1" stop-color="white" stop-opacity="0.2"/>
</linearGradient>
<linearGradient id="paint3_linear_871_1048" x1="71.449" y1="71.7535" x2="153.804" y2="72.8291" gradientUnits="userSpaceOnUse">
<stop stop-color="white"/>
<stop offset="1" stop-color="white" stop-opacity="0"/>
</linearGradient>
<linearGradient id="paint4_linear_871_1048" x1="77.5427" y1="129.815" x2="131.361" y2="150.705" gradientUnits="userSpaceOnUse">
<stop stop-color="white" stop-opacity="0.5"/>
<stop offset="1" stop-color="white"/>
</linearGradient>
<linearGradient id="paint5_linear_871_1048" x1="69.9683" y1="126.689" x2="152.343" y2="119.862" gradientUnits="userSpaceOnUse">
<stop stop-color="white"/>
<stop offset="1" stop-color="white"/>
</linearGradient>
</defs>
</svg>
