<svg width="169" height="160" viewBox="0 0 169 160" fill="none" xmlns="http://www.w3.org/2000/svg">
<path d="M147.682 14.0318L100.322 1.34173C83.1435 -3.26127 70.4463 4.11722 65.8282 21.3523L50.1871 79.7257C45.4933 97.2433 52.8607 109.756 70.0393 114.359L117.399 127.049C134.855 131.726 147.209 124.498 151.903 106.98L167.544 48.6069C172.162 31.3718 165.137 18.7089 147.682 14.0318Z" fill="url(#paint0_linear_871_867)"/>
<g filter="url(#filter0_b_871_867)">
<mask id="path-2-inside-1_871_867" fill="white">
<path d="M96.5229 25.3789H38.1649C15.3467 25.3789 0 41.3988 0 65.2266V120.219C0 143.98 15.3467 159.999 38.1649 159.999H96.5229C119.341 159.999 134.621 143.98 134.621 120.219V65.2266C134.621 41.3988 119.341 25.3789 96.5229 25.3789"/>
</mask>
<path d="M96.5229 25.3789H38.1649C15.3467 25.3789 0 41.3988 0 65.2266V120.219C0 143.98 15.3467 159.999 38.1649 159.999H96.5229C119.341 159.999 134.621 143.98 134.621 120.219V65.2266C134.621 41.3988 119.341 25.3789 96.5229 25.3789" fill="#78E043" fill-opacity="0.35"/>
<path d="M96.5229 26.3789C97.0752 26.3789 97.5229 25.9312 97.5229 25.3789C97.5229 24.8266 97.0752 24.3789 96.5229 24.3789V26.3789ZM96.5229 24.3789C95.9706 24.3789 95.5229 24.8266 95.5229 25.3789C95.5229 25.9312 95.9706 26.3789 96.5229 26.3789V24.3789ZM96.5229 24.3789H38.1649V26.3789H96.5229V24.3789ZM38.1649 24.3789C26.5131 24.3789 16.7008 28.4746 9.80347 35.6756C2.90974 42.8728 -1 53.0959 -1 65.2266H1C1 53.5294 4.76363 43.8287 11.2478 37.059C17.7284 30.2931 26.9986 26.3789 38.1649 26.3789V24.3789ZM-1 65.2266V120.219H1V65.2266H-1ZM-1 120.219C-1 132.317 2.91019 142.523 9.80389 149.712C16.7011 156.904 26.5131 160.999 38.1649 160.999V158.999C26.9986 158.999 17.7281 155.085 11.2474 148.327C4.76318 141.566 1 131.882 1 120.219H-1ZM38.1649 160.999H96.5229V158.999H38.1649V160.999ZM96.5229 160.999C108.175 160.999 117.971 156.904 124.851 149.711C131.728 142.522 135.621 132.316 135.621 120.219H133.621C133.621 131.883 129.873 141.567 123.406 148.328C116.942 155.085 107.689 158.999 96.5229 158.999V160.999ZM135.621 120.219V65.2266H133.621V120.219H135.621ZM135.621 65.2266C135.621 53.0971 131.728 42.8742 124.852 35.6765C117.971 28.4748 108.175 24.3789 96.5229 24.3789V26.3789C107.689 26.3789 116.942 30.2929 123.406 37.0581C129.873 43.8273 133.621 53.5282 133.621 65.2266H135.621Z" fill="url(#paint1_linear_871_867)" mask="url(#path-2-inside-1_871_867)"/>
</g>
<g filter="url(#filter1_bd_871_867)">
<mask id="path-4-inside-2_871_867" fill="white">
<path d="M59.3202 114.55C57.8125 114.55 56.3047 113.978 55.1537 112.827L39.181 96.8545C36.879 94.5525 36.879 90.8235 39.181 88.5282C41.483 86.2262 45.2052 86.2195 47.5073 88.5215L59.3202 100.334L87.1059 72.5488C89.4079 70.2468 93.1302 70.2468 95.4322 72.5488C97.7342 74.8508 97.7342 78.5798 95.4322 80.8818L63.4867 112.827C62.3357 113.978 60.828 114.55 59.3202 114.55"/>
</mask>
<path d="M59.3202 114.55C57.8125 114.55 56.3047 113.978 55.1537 112.827L39.181 96.8545C36.879 94.5525 36.879 90.8235 39.181 88.5282C41.483 86.2262 45.2052 86.2195 47.5073 88.5215L59.3202 100.334L87.1059 72.5488C89.4079 70.2468 93.1302 70.2468 95.4322 72.5488C97.7342 74.8508 97.7342 78.5798 95.4322 80.8818L63.4867 112.827C62.3357 113.978 60.828 114.55 59.3202 114.55" fill="url(#paint2_linear_871_867)"/>
<path d="M39.181 88.5282L39.3222 88.6699L39.3224 88.6697L39.181 88.5282ZM59.3202 100.334L59.1788 100.476L59.3202 100.617L59.4616 100.476L59.3202 100.334ZM95.4322 80.8818L95.2908 80.7404L95.4322 80.8818ZM63.4867 112.827L63.6281 112.969L63.4867 112.827ZM59.3202 114.35C57.8631 114.35 56.4069 113.798 55.2951 112.686L55.0123 112.969C56.2025 114.159 57.7618 114.75 59.3202 114.75V114.35ZM55.2951 112.686L39.3224 96.7131L39.0396 96.9959L55.0123 112.969L55.2951 112.686ZM39.3224 96.7131C37.0984 94.4891 37.0987 90.8869 39.3222 88.6699L39.0398 88.3866C36.6593 90.7602 36.6596 94.6159 39.0396 96.9959L39.3224 96.7131ZM39.3224 88.6697C41.5466 86.4455 45.1422 86.4393 47.3658 88.6629L47.6487 88.3801C45.2683 85.9997 41.4194 86.007 39.0396 88.3868L39.3224 88.6697ZM47.3658 88.6629L59.1788 100.476L59.4616 100.193L47.6487 88.3801L47.3658 88.6629ZM59.4616 100.476L87.2473 72.6902L86.9645 72.4074L59.1788 100.193L59.4616 100.476ZM87.2473 72.6902C89.4712 70.4663 93.0669 70.4663 95.2908 72.6902L95.5736 72.4074C93.1935 70.0272 89.3446 70.0272 86.9645 72.4074L87.2473 72.6902ZM95.2908 72.6902C97.5147 74.9141 97.5147 78.5165 95.2908 80.7404L95.5736 81.0232C97.9537 78.6431 97.9537 74.7875 95.5736 72.4074L95.2908 72.6902ZM95.2908 80.7404L63.3453 112.686L63.6281 112.969L95.5736 81.0232L95.2908 80.7404ZM63.3453 112.686C62.2335 113.798 60.7773 114.35 59.3202 114.35V114.75C60.8786 114.75 62.438 114.159 63.6281 112.969L63.3453 112.686Z" fill="url(#paint3_linear_871_867)" fill-opacity="0.5" mask="url(#path-4-inside-2_871_867)"/>
</g>
<defs>
<filter id="filter0_b_871_867" x="-24" y="1.37891" width="182.62" height="182.62" filterUnits="userSpaceOnUse" color-interpolation-filters="sRGB">
<feFlood flood-opacity="0" result="BackgroundImageFix"/>
<feGaussianBlur in="BackgroundImageFix" stdDeviation="12"/>
<feComposite in2="SourceAlpha" operator="in" result="effect1_backgroundBlur_871_867"/>
<feBlend mode="normal" in="SourceGraphic" in2="effect1_backgroundBlur_871_867" result="shape"/>
</filter>
<filter id="filter1_bd_871_867" x="22.4545" y="55.8223" width="89.7042" height="73.7285" filterUnits="userSpaceOnUse" color-interpolation-filters="sRGB">
<feFlood flood-opacity="0" result="BackgroundImageFix"/>
<feGaussianBlur in="BackgroundImageFix" stdDeviation="7.5"/>
<feComposite in2="SourceAlpha" operator="in" result="effect1_backgroundBlur_871_867"/>
<feColorMatrix in="SourceAlpha" type="matrix" values="0 0 0 0 0 0 0 0 0 0 0 0 0 0 0 0 0 0 127 0" result="hardAlpha"/>
<feOffset dx="5" dy="5"/>
<feGaussianBlur stdDeviation="5"/>
<feColorMatrix type="matrix" values="0 0 0 0 0.0392157 0 0 0 0 0.682353 0 0 0 0 0.262745 0 0 0 0.3 0"/>
<feBlend mode="normal" in2="effect1_backgroundBlur_871_867" result="effect2_dropShadow_871_867"/>
<feBlend mode="normal" in="SourceGraphic" in2="effect2_dropShadow_871_867" result="shape"/>
</filter>
<linearGradient id="paint0_linear_871_867" x1="174.857" y1="21.3132" x2="71.5744" y2="84.525" gradientUnits="userSpaceOnUse">
<stop stop-color="#77E043"/>
<stop offset="1" stop-color="#25AE0A"/>
</linearGradient>
<linearGradient id="paint1_linear_871_867" x1="16.6919" y1="39.096" x2="102.687" y2="140.602" gradientUnits="userSpaceOnUse">
<stop stop-color="white" stop-opacity="0.25"/>
<stop offset="1" stop-color="#77E043" stop-opacity="0.2"/>
</linearGradient>
<linearGradient id="paint2_linear_871_867" x1="92.9257" y1="78.7187" x2="26.4818" y2="81.6765" gradientUnits="userSpaceOnUse">
<stop stop-color="white"/>
<stop offset="1" stop-color="white" stop-opacity="0.5"/>
</linearGradient>
<linearGradient id="paint3_linear_871_867" x1="43.8859" y1="85.4909" x2="73.7778" y2="104.733" gradientUnits="userSpaceOnUse">
<stop stop-color="white"/>
<stop offset="1" stop-color="white" stop-opacity="0"/>
</linearGradient>
</defs>
</svg>
