<svg width="24" height="19" viewBox="0 0 24 19" fill="none" xmlns="http://www.w3.org/2000/svg">
<path d="M5.65124 2.48793C7.31249 1.19081 9.44249 0.203118 12 0.203118C15.03 0.203118 17.4562 1.58822 19.2225 3.23349C20.9775 4.86523 22.1512 6.78647 22.7062 8.16254C22.83 8.45956 22.83 8.79042 22.7062 9.08744C22.2037 10.3018 21.195 12.0125 19.71 13.539L23.655 16.6371C24.045 16.9454 24.1162 17.5131 23.8087 17.9041C23.5012 18.2951 22.935 18.3665 22.545 18.0582L0.344843 0.612557C-0.0463567 0.305008 -0.114944 -0.261965 0.191693 -0.654259C0.498368 -1.04648 1.06387 -1.11524 1.45537 -0.807808L5.65124 2.48793ZM7.11749 3.6433L8.84249 4.99682C9.68624 4.25991 10.7925 3.81249 12 3.81249C14.6512 3.81249 16.8 5.96684 16.8 8.62499C16.8 9.42206 16.6087 10.1703 16.2675 10.832L18.285 12.4186C19.5412 11.1365 20.4712 9.64389 20.9475 8.62499C20.4037 7.46323 19.44 5.89916 17.9962 4.55317C16.455 3.1207 14.445 1.97397 12 1.97397C10.1062 1.97397 8.44124 2.67441 7.11749 3.6433ZM14.8087 9.68525C14.9325 9.35439 15 8.99721 15 8.59116C15 6.96318 13.6575 5.58334 12 5.58334C11.9737 5.58334 11.9512 5.61718 11.8912 5.61718C11.9737 5.80893 12 6.01196 12 6.18491C12 6.60224 11.91 6.96318 11.7525 7.28276L14.8087 9.68525ZM15.1612 14.5842L16.7325 15.8249C15.3712 16.5619 13.7925 17.0469 12 17.0469C8.96999 17.0469 6.54374 15.6633 4.77749 14.0165C3.02324 12.3509 1.85024 10.4297 1.29224 9.08744C1.16924 8.79042 1.16924 8.45956 1.29224 8.16254C1.64999 7.30156 2.26087 6.18866 3.11587 5.07201L4.52999 6.18866C3.82874 7.06469 3.36599 7.9332 3.05437 8.59116C3.56324 9.75292 4.55999 11.3508 6.00374 12.6968C7.54499 14.1293 9.55499 15.2422 12 15.2422C13.1512 15.2422 14.205 14.994 15.1612 14.5842ZM7.19999 8.59116C7.19999 8.51596 7.20374 8.41069 7.21124 8.30541L9.31499 9.96723C9.70874 10.7605 10.4437 11.3546 11.325 11.5238L13.4325 13.2194C12.9787 13.3285 12.4987 13.4375 11.9662 13.4375C9.34874 13.4375 7.16624 11.2831 7.16624 8.59116H7.19999Z" fill="white"/>
</svg>
